<svg id="Layer_1" data-name="Layer 1" xmlns="http://www.w3.org/2000/svg" viewBox="0 0 283.46 283.46"><defs><style>.cls-1{fill:#fff;}</style></defs><title>School_21_logo</title><path d="M235.17,77.26h0a8.25,8.25,0,0,1-2.42-5.84V44.59a7.52,7.52,0,0,0-7.52-7.52H200.79a7.52,7.52,0,0,0-7.52,7.52V69a7.52,7.52,0,0,0,7.52,7.52h26.81A8.25,8.25,0,0,1,233.44,79h0a8.25,8.25,0,0,1,2.42,5.84V239.41a7.52,7.52,0,0,0,7.52,7.52h24.44a7.52,7.52,0,0,0,7.52-7.52V87.2a7.52,7.52,0,0,0-7.52-7.52H241A8.25,8.25,0,0,1,235.17,77.26Z"/><path d="M51.54,164.2l0,0a8.25,8.25,0,0,1,5.82-2.4h66.34a7.49,7.49,0,0,0,7.49-7.49v-26.9a8.16,8.16,0,0,1,2.4-5.78l0,0a8.26,8.26,0,0,1,5.82-2.4h26.85a7.49,7.49,0,0,0,7.49-7.49V87.16a7.49,7.49,0,0,0-7.49-7.49H139.47a8.25,8.25,0,0,1-8.25-8.25V44.56a7.49,7.49,0,0,0-7.49-7.49H17.26a7.61,7.61,0,0,0-7.61,7.61V68.94a7.61,7.61,0,0,0,7.61,7.61h108.8a8.27,8.27,0,0,1,8.27,8.26V114a8.21,8.21,0,0,1-2.42,5.82l0,0a8.25,8.25,0,0,1-5.82,2.4H59.73a7.49,7.49,0,0,0-7.49,7.49v26.88a8.21,8.21,0,0,1-2.4,5.8l0,0a8.21,8.21,0,0,1-5.8,2.4H17.13a7.49,7.49,0,0,0-7.49,7.49v24.51a7.49,7.49,0,0,0,7.49,7.49H44a8.21,8.21,0,0,1,5.8,2.4h0a8.21,8.21,0,0,1,2.4,5.8v26.87a7.49,7.49,0,0,0,7.49,7.49H166.2a7.61,7.61,0,0,0,7.61-7.61V215.06a7.61,7.61,0,0,0-7.61-7.61H57.39a8.26,8.26,0,0,1-5.82-2.4l0,0a8.16,8.16,0,0,1-2.4-5.78V170A8.16,8.16,0,0,1,51.54,164.2Z"/><path class="cls-1" d="M262.88,109.19l0,0a1,1,0,0,1-.68.28h-3.74a1,1,0,0,1-.68-.28l0,0a1,1,0,0,1-.28-.68V90.23a1,1,0,0,0-1-1h-3.05a1,1,0,0,0-1,1v18.28a1,1,0,0,1-.28.68l0,0a1,1,0,0,1-.68.28h-3.74a1,1,0,0,1-.68-.28l0,0a1,1,0,0,1-.28-.68V90.23a1,1,0,0,0-1-1h-3.05a1,1,0,0,0-1,1v17.94a1,1,0,0,0,1,1h3.39a1,1,0,0,1,.68.28l0,0a1,1,0,0,1,.28.68v3.39a1,1,0,0,0,1,1h3.05a1,1,0,0,0,1-1v-3.39a1,1,0,0,1,.28-.68l0,0a1,1,0,0,1,.68-.28h3.74a1,1,0,0,1,.68.28l0,0a1,1,0,0,1,.28.68v3.39a1,1,0,0,0,1,1h3.05a1,1,0,0,0,1-1v-3.39a1,1,0,0,1,.28-.68l0,0a1,1,0,0,1,.68-.28h3.39a1,1,0,0,0,1-1V90.23a1,1,0,0,0-1-1h-3.05a1,1,0,0,0-1,1v18.28A1,1,0,0,1,262.88,109.19Z"/><path class="cls-1" d="M257.42,156.49V153a.91.91,0,0,0-.91-.91h-3.13a.91.91,0,0,0-.91.91v3.45a.91.91,0,0,1-.27.65l-.07.07a.91.91,0,0,1-.65.27H248a.91.91,0,0,0-.91.91v13.06a.91.91,0,0,0,.91.91h3.45a.91.91,0,0,1,.65.27l.07.07a.91.91,0,0,1,.27.65v3.45a.91.91,0,0,0,.91.91h3.13a.91.91,0,0,0,.91-.91v-3.45a.91.91,0,0,1,.27-.65l.07-.07a.91.91,0,0,1,.65-.27h3.45a.91.91,0,0,0,.91-.91V158.39a.91.91,0,0,0-.91-.91H258.4a.91.91,0,0,1-.65-.27l-.07-.07A.91.91,0,0,1,257.42,156.49Zm.12,15.92-.07.07a.91.91,0,0,1-.65.27h-3.77a.91.91,0,0,1-.65-.27l-.07-.07a.91.91,0,0,1-.27-.65V158.07a.91.91,0,0,1,.27-.65l.07-.07a.91.91,0,0,1,.65-.27h3.77a.91.91,0,0,1,.65.27l.07.07a.91.91,0,0,1,.27.65v13.69A.91.91,0,0,1,257.54,172.41Z"/><path class="cls-1" d="M257.36,130.28l-.09.09a.89.89,0,0,1-.63.26h-3.49a.89.89,0,0,1-.89-.89v-8.15a.89.89,0,0,0-.89-.89h-3.19a.89.89,0,0,0-.89.89V145a.89.89,0,0,0,.89.89h3.19a.89.89,0,0,0,.89-.89v-8.54a.89.89,0,0,1,.89-.89h3.5a.89.89,0,0,1,.63.26l.09.09a.89.89,0,0,1,.26.63V145a.89.89,0,0,0,.89.89h3.19a.89.89,0,0,0,.89-.89v-8.15a.89.89,0,0,0-.89-.89H258.2a.89.89,0,0,1-.63-.26l-.09-.09a.89.89,0,0,1-.26-.63v-3.79a.89.89,0,0,1,.26-.63l.09-.09a.89.89,0,0,1,.63-.26h3.49a.89.89,0,0,0,.89-.89v-7.76a.89.89,0,0,0-.89-.89H258.5a.89.89,0,0,0-.89.89v8.07A.89.89,0,0,1,257.36,130.28Z"/><path class="cls-1" d="M257.42,188.28V184.9a1,1,0,0,0-1-1h-3a1,1,0,0,0-1,1v3.38a1,1,0,0,1-.28.68l0,0a1,1,0,0,1-.68.28h-3.38a1,1,0,0,0-1,1v18.3a1,1,0,0,0,1,1h3a1,1,0,0,0,1-1V189.91a1,1,0,0,1,.28-.68l0,0a1,1,0,0,1,.68-.28h3.73a1,1,0,0,1,.68.28l0,0a1,1,0,0,1,.28.68v18.65a1,1,0,0,0,1,1h3a1,1,0,0,0,1-1v-18.3a1,1,0,0,0-1-1h-3.38a1,1,0,0,1-.68-.28l0,0A1,1,0,0,1,257.42,188.28Z"/><path class="cls-1" d="M257.75,220.82l-.05-.05a.93.93,0,0,1-.27-.66v-3.42a.93.93,0,0,0-.93-.93h-3.09a.93.93,0,0,0-.93.93v3.42a.93.93,0,0,1-.27.66l-.05.05a.93.93,0,0,1-.66.27H248a.93.93,0,0,0-.93.93V240.4a.93.93,0,0,0,.93.93h3.09a.93.93,0,0,0,.93-.93V231h0v-4.75l.12.12a.93.93,0,0,1,.27.66v3.43a.93.93,0,0,0,.93.93h3.09a.93.93,0,0,0,.93-.93v-3.41a.93.93,0,0,1,.27-.66l.12-.12V240.4a.93.93,0,0,0,.93.93h3.09a.93.93,0,0,0,.93-.93V222a.93.93,0,0,0-.93-.93h-3.43A.93.93,0,0,1,257.75,220.82Zm-.21,5.31,0,0a.93.93,0,0,1-.66.27h-3.77a.93.93,0,0,1-.66-.27l-.06-.06a.93.93,0,0,1-.27-.66V221.7a.93.93,0,0,1,.27-.66l.06-.06a.93.93,0,0,1,.66-.27h3.75a.93.93,0,0,1,.66.27l.06.06a.93.93,0,0,1,.27.66v3.76A.93.93,0,0,1,257.54,226.13Z"/></svg>