<svg id="Layer_1" data-name="Layer 1" xmlns="http://www.w3.org/2000/svg" viewBox="0 0 283.46 283.46"><defs><style>.cls-1{fill:#00ffaf;}.cls-2{fill:#000014;}</style></defs><title>School_21_logo</title><path class="cls-1" d="M232.51,79.71h0a7.92,7.92,0,0,1-2.32-5.6V48.35A7.22,7.22,0,0,0,223,41.13H199.5a7.22,7.22,0,0,0-7.22,7.22V71.82A7.22,7.22,0,0,0,199.5,79h25.74a7.92,7.92,0,0,1,5.6,2.32h0a7.92,7.92,0,0,1,2.32,5.6V235.4a7.22,7.22,0,0,0,7.22,7.22h23.47a7.22,7.22,0,0,0,7.22-7.22V89.26A7.22,7.22,0,0,0,263.86,82H238.11A7.92,7.92,0,0,1,232.51,79.71Z"/><path class="cls-1" d="M56.19,163.19l0,0a7.93,7.93,0,0,1,5.59-2.31H125.5a7.19,7.19,0,0,0,7.19-7.19V127.84a7.83,7.83,0,0,1,2.31-5.55l0,0a7.93,7.93,0,0,1,5.59-2.31H166.4a7.19,7.19,0,0,0,7.19-7.19V89.22A7.19,7.19,0,0,0,166.4,82H140.62a7.93,7.93,0,0,1-7.93-7.92V48.32a7.19,7.19,0,0,0-7.19-7.19H23.28A7.31,7.31,0,0,0,16,48.44V71.73A7.31,7.31,0,0,0,23.28,79H127.75A7.94,7.94,0,0,1,135.68,87v28a7.88,7.88,0,0,1-2.32,5.58l0,0a7.92,7.92,0,0,1-5.59,2.31H64.06a7.19,7.19,0,0,0-7.19,7.19v25.8a7.88,7.88,0,0,1-2.31,5.57l0,0A7.88,7.88,0,0,1,49,163.84H23.16A7.19,7.19,0,0,0,16,171v23.53a7.19,7.19,0,0,0,7.19,7.19H49a7.88,7.88,0,0,1,5.57,2.31h0a7.88,7.88,0,0,1,2.31,5.57v25.8a7.19,7.19,0,0,0,7.19,7.19H166.28a7.31,7.31,0,0,0,7.31-7.31V212a7.31,7.31,0,0,0-7.31-7.31H61.81a7.93,7.93,0,0,1-5.59-2.31l0,0a7.83,7.83,0,0,1-2.31-5.55V168.74A7.83,7.83,0,0,1,56.19,163.19Z"/><path class="cls-2" d="M259.11,110.37l0,0a.92.92,0,0,1-.65.27h-3.59a.92.92,0,0,1-.65-.27l0,0a.92.92,0,0,1-.27-.65V92.17a.92.92,0,0,0-.92-.92H250a.92.92,0,0,0-.92.92v17.55a.92.92,0,0,1-.27.65l0,0a.92.92,0,0,1-.65.27h-3.59a.92.92,0,0,1-.65-.27l0,0a.92.92,0,0,1-.27-.65V92.17a.92.92,0,0,0-.92-.92h-2.93a.92.92,0,0,0-.92.92v17.22a.92.92,0,0,0,.92.92H243a.92.92,0,0,1,.65.27l0,0a.92.92,0,0,1,.27.65v3.26a.92.92,0,0,0,.92.92h2.93a.92.92,0,0,0,.92-.92v-3.26a.92.92,0,0,1,.27-.65l0,0a.92.92,0,0,1,.65-.27h3.59a.92.92,0,0,1,.65.27l0,0a.92.92,0,0,1,.27.65v3.26a.92.92,0,0,0,.92.92h2.93a.92.92,0,0,0,.92-.92v-3.26a.92.92,0,0,1,.27-.65l0,0a.92.92,0,0,1,.65-.27h3.26a.92.92,0,0,0,.92-.92V92.17a.92.92,0,0,0-.92-.92H260.3a.92.92,0,0,0-.92.92v17.55A.92.92,0,0,1,259.11,110.37Z"/><path class="cls-2" d="M253.87,155.79v-3.32a.88.88,0,0,0-.88-.88h-3a.88.88,0,0,0-.88.88v3.32a.88.88,0,0,1-.26.62l-.06.06a.88.88,0,0,1-.62.26h-3.32a.88.88,0,0,0-.88.88v12.54a.88.88,0,0,0,.88.88h3.31a.88.88,0,0,1,.62.26l.07.07a.88.88,0,0,1,.26.62v3.32a.88.88,0,0,0,.88.88h3a.88.88,0,0,0,.88-.88V172a.88.88,0,0,1,.26-.62l.07-.07a.88.88,0,0,1,.62-.26h3.31a.88.88,0,0,0,.88-.88V157.61a.88.88,0,0,0-.88-.88h-3.32a.88.88,0,0,1-.62-.26l-.06-.06A.88.88,0,0,1,253.87,155.79Zm.12,15.28-.07.07a.88.88,0,0,1-.62.26h-3.62a.88.88,0,0,1-.62-.26l-.07-.07a.88.88,0,0,1-.26-.62V157.31a.88.88,0,0,1,.26-.62l.07-.07a.88.88,0,0,1,.62-.26h3.62a.88.88,0,0,1,.62.26l.07.07a.88.88,0,0,1,.26.62v13.14A.88.88,0,0,1,254,171.07Z"/><path class="cls-2" d="M253.81,130.62l-.09.09a.85.85,0,0,1-.6.25h-3.35a.85.85,0,0,1-.85-.85v-7.83a.85.85,0,0,0-.85-.85H245a.85.85,0,0,0-.85.85v22.5a.85.85,0,0,0,.85.85h3.06a.85.85,0,0,0,.85-.85v-8.2a.85.85,0,0,1,.85-.85h3.36a.85.85,0,0,1,.6.25l.08.08a.85.85,0,0,1,.25.6v8.12a.85.85,0,0,0,.85.85H258a.85.85,0,0,0,.85-.85v-7.83a.85.85,0,0,0-.85-.85h-3.35a.85.85,0,0,1-.6-.25l-.08-.08a.85.85,0,0,1-.25-.6v-3.64a.85.85,0,0,1,.25-.6l.09-.09a.85.85,0,0,1,.6-.25H258a.85.85,0,0,0,.85-.85v-7.45a.85.85,0,0,0-.85-.85h-3.06a.85.85,0,0,0-.85.85V130A.85.85,0,0,1,253.81,130.62Z"/><path class="cls-2" d="M253.87,186.31v-3.24a.93.93,0,0,0-.93-.93H250a.93.93,0,0,0-.93.93v3.24a.93.93,0,0,1-.27.66l0,0a.93.93,0,0,1-.66.27h-3.25a.93.93,0,0,0-.93.93v17.57a.93.93,0,0,0,.93.93h2.91a.93.93,0,0,0,.93-.93V187.87a.93.93,0,0,1,.27-.66l0,0a.93.93,0,0,1,.66-.27h3.58a.93.93,0,0,1,.66.27l0,0a.93.93,0,0,1,.27.66v17.91a.93.93,0,0,0,.93.93h2.91a.93.93,0,0,0,.93-.93V188.2a.93.93,0,0,0-.93-.93h-3.25a.93.93,0,0,1-.66-.27l0,0A.93.93,0,0,1,253.87,186.31Z"/><path class="cls-2" d="M254.18,217.55l-.05-.05a.9.9,0,0,1-.26-.63v-3.29a.9.9,0,0,0-.9-.9h-3a.9.9,0,0,0-.9.9v3.29a.9.9,0,0,1-.26.63l-.05.05a.9.9,0,0,1-.63.26h-3.29a.9.9,0,0,0-.9.9v17.64a.9.9,0,0,0,.9.9h3a.9.9,0,0,0,.9-.9v-9h0v-4.56l.11.11a.9.9,0,0,1,.26.63v3.29a.9.9,0,0,0,.9.9h3a.9.9,0,0,0,.9-.9v-3.27a.9.9,0,0,1,.26-.63l.11-.11v13.55a.9.9,0,0,0,.9.9h3a.9.9,0,0,0,.9-.9V218.71a.9.9,0,0,0-.9-.9h-3.29A.9.9,0,0,1,254.18,217.55Zm-.2,5.1,0,0a.9.9,0,0,1-.63.26h-3.62a.9.9,0,0,1-.63-.26l-.06-.06a.9.9,0,0,1-.26-.63v-3.6a.9.9,0,0,1,.26-.63l.06-.06a.9.9,0,0,1,.63-.26h3.6a.9.9,0,0,1,.63.26l.06.06a.9.9,0,0,1,.26.63V222A.9.9,0,0,1,254,222.65Z"/></svg>